<?xml version="1.0" encoding="utf-8"?>
<svg viewBox="0 0 500 500" xmlns="http://www.w3.org/2000/svg">
  <defs/>
  <path opacity="1.000000" stroke="none" d="M 86.843 300.733 C 84.229 303.33 81.86 305.672 79.498 308.02 C 77.47 310.036 75.426 310.072 73.405 308.038 C 57.323 291.855 40.773 276.101 25.326 259.332 C 13.947 246.98 15.843 226.842 28.057 214.399 C 39.361 202.883 59.665 201.671 72.373 212.057 C 75.343 214.484 77.082 214.848 80.246 212.209 C 92.935 201.628 113.21 202.858 124.986 214.552 C 136.826 226.308 138.149 245.623 128.1 258.843 C 125.157 262.715 121.608 265.986 118.199 269.401 C 107.844 279.775 97.463 290.123 86.843 300.733 M 68.142 228.081 C 66.844 224.604 65.073 221.455 62.19 218.999 C 58.666 215.997 56.567 216.482 54.599 220.748 C 53.87 222.328 53.799 223.955 53.799 225.623 C 53.8 230.405 53.799 235.188 53.799 240.33 C 50.184 239.765 49.595 242.3 48.406 245.067 C 44.498 254.166 46.899 263.889 45.089 273.157 C 44.851 274.379 46.024 275.222 46.84 276.043 C 55.76 285.019 64.729 293.947 73.584 302.987 C 75.73 305.177 77.29 305.034 79.368 302.899 C 85.406 296.696 91.56 290.604 97.749 284.55 C 100.002 282.347 101.295 279.978 99.474 277.05 C 97.531 273.925 95.008 275.976 92.523 276.175 C 93.477 278.627 96.816 278.314 96.833 281.168 C 94.431 282.933 92.59 279.694 90.347 280.434 C 89.649 282.645 93.471 283.733 91.285 286.924 C 87.134 281.59 81.982 282.352 76.671 284.346 C 76.393 284.45 75.958 284.4 75.696 284.248 C 70.701 281.354 65.586 280.371 60.183 283.143 C 60.139 283.166 59.829 282.672 59.655 282.436 C 59.426 279.768 63.643 280.105 63.346 277.077 C 60.356 276.892 57.412 278.943 54.566 276.724 C 56.121 273.748 59.575 274.97 61.536 273.187 C 60.407 270.543 55.89 272.565 55.753 268.844 C 64.335 265.774 68.839 271.771 73.684 277.493 C 74.098 273.985 74.148 271.239 78.225 271.952 C 81.789 272.576 81.572 274.806 80.087 278.234 C 85.776 275.197 89.479 269.915 95.899 271.825 C 96.271 271.936 97.01 271.165 97.44 270.681 C 101.337 266.295 104.187 261.521 102.569 255.312 C 100.38 246.917 102.072 239.31 106.89 232.206 C 107.841 230.804 109.456 229.427 108.437 226.728 C 99.405 226.626 94.922 234.103 89.283 239.708 C 86.308 235.562 90.653 234.026 90.629 230.943 C 85.445 226.747 79.328 226.095 72.245 227.008 C 73.024 229.579 73.706 231.764 74.343 233.962 C 74.633 234.966 74.716 236.019 73.494 236.463 C 72.334 236.885 71.606 236.213 71.168 235.194 C 70.248 233.055 69.348 230.908 68.142 228.081 Z" style="fill: rgb(255, 255, 255);"/>
  <path opacity="1.000000" stroke="none" d="M 157.523 289.95 C 157.275 269.88 157.205 250.248 157.143 230.615 C 157.136 228.552 157.169 226.263 159.996 226.296 C 169.62 226.406 179.329 225.009 188.848 227.02 C 200.432 229.466 206.086 238.46 204.747 251.448 C 203.764 260.985 195.134 268.297 184.539 268.573 C 184.372 268.577 184.206 268.573 184.04 268.576 C 171.661 268.774 171.661 268.775 171.642 281.394 C 171.626 291.899 168.927 293.876 158.449 291.03 C 158.163 290.952 157.949 290.607 157.523 289.95 M 172.798 239.078 C 170.906 241.024 171.702 243.473 171.685 245.702 C 171.601 256.96 171.644 256.96 182.852 256.052 C 188.167 255.621 191.073 252.592 191.121 247.431 C 191.169 242.238 188.338 239.046 183.027 238.701 C 179.899 238.497 176.742 238.723 172.798 239.078 Z" style="fill: rgb(255, 255, 255);"/>
  <path opacity="1.000000" stroke="none" d="M 410.338 291.554 C 409.199 291.562 408.532 291.569 407.866 291.564 C 401.185 291.521 401.15 291.521 401.143 284.919 C 401.124 265.923 401.339 246.924 401.014 227.934 C 400.914 222.048 403.999 222.096 408.192 222.082 C 412.327 222.069 415.19 222.284 414.941 227.836 C 414.514 237.314 414.794 246.826 414.86 256.324 C 414.872 258.051 414.26 260.021 416.294 261.636 C 420.225 259.046 423.097 255.211 425.379 251.378 C 430.365 243.001 437.696 245.031 446.444 245.319 C 441.963 250.585 438.365 254.828 434.751 259.056 C 428.552 266.309 428.554 266.3 434.572 273.844 C 438.872 279.236 443.152 284.644 447.642 290.298 C 437.714 293.556 432.121 291.879 426.543 284.733 C 423.41 280.718 420.735 276.301 416.418 272.236 C 413.698 277.373 415.131 282.224 414.883 286.819 C 414.728 289.685 414.341 291.829 410.338 291.554 Z" style="fill: rgb(255, 255, 255);"/>
  <path opacity="1.000000" stroke="none" d="M 391.713 260.578 C 393.459 272.402 392.738 270.564 383.122 270.684 C 376.956 270.762 370.788 270.68 364.623 270.755 C 362.863 270.777 360.925 270.219 359.248 271.955 C 359.388 275.954 361.541 278.596 365.246 280.074 C 369.235 281.665 373.059 281.499 376.529 278.674 C 381.122 274.934 385.475 274.67 391.126 277.784 C 388.685 287.006 378.441 293.599 368.371 292.428 C 353.45 290.694 345.755 282.91 345.033 270.009 C 344.207 255.266 352.549 246.047 364.54 244.163 C 378.217 242.014 387.616 247.547 391.713 260.578 M 367.119 261.324 C 370.613 261.015 374.264 262.067 377.784 260.328 C 376.623 255.25 372.907 253.856 368.818 254.113 C 364.982 254.354 360.974 255.373 360.174 260.613 C 362.283 261.588 364.28 261.23 367.119 261.324 Z" style="fill: rgb(255, 255, 255);"/>
  <path opacity="1.000000" stroke="none" d="M 254.883 260.302 C 259.312 244.233 278.584 240.814 291.53 246.28 C 303.715 251.424 308.542 267.387 302.019 279.929 C 296.78 290.002 284.458 294.582 271.303 291.345 C 260.56 288.702 254.122 280.22 254.134 268.625 C 254.137 265.976 253.804 263.285 254.883 260.302 M 267.902 264.588 C 267.364 270.64 267.761 276.406 273.904 279.709 C 279.652 282.8 286.786 280.364 289.606 274.58 C 293.041 267.534 290.535 259.031 284.161 256.107 C 277.412 253.011 271.42 255.878 267.902 264.588 Z" style="fill: rgb(255, 255, 255);"/>
  <path opacity="1.000000" stroke="none" d="M 236.312 257.265 C 233.939 253.77 230.777 253.254 227.28 253.773 C 225.699 254.008 224.38 254.808 224.092 256.489 C 223.779 258.306 225.101 259.312 226.524 259.819 C 230.433 261.212 234.468 262.26 238.344 263.733 C 247.748 267.307 251.47 274.549 248.375 282.885 C 246.158 288.857 238.508 292.929 229.575 292.46 C 222.981 292.114 216.559 290.766 212.4 284.915 C 211.122 283.117 208.48 280.116 211.659 278.646 C 214.639 277.268 218.564 273.811 221.963 277.797 C 224.583 280.87 227.325 282.601 231.39 282.074 C 233.514 281.799 235.519 281.197 235.858 278.866 C 236.155 276.831 234.721 275.398 232.884 274.732 C 229.297 273.432 225.626 272.364 222.027 271.095 C 216.814 269.257 212.171 266.676 211.238 260.545 C 210.069 252.861 213.636 246.901 221.222 245.008 C 229.139 243.032 237.113 242.823 243.804 248.816 C 245.828 250.629 247.068 252.988 247.436 256.33 C 243.89 257.34 240.663 260.211 236.312 257.265 Z" style="fill: rgb(255, 255, 255);"/>
  <path opacity="1.000000" stroke="none" d="M 317.848 237.119 C 318.108 230.748 323.566 227.611 328.889 230.402 C 330.318 231.151 330.488 232.434 330.538 233.771 C 330.613 235.766 330.737 237.775 330.586 239.759 C 330.307 243.449 331.428 245.571 335.587 245.032 C 339.448 244.532 339.893 246.951 339.802 249.986 C 339.714 252.917 340.009 256.03 335.642 255.612 C 331.629 255.228 330.352 257.066 330.535 260.864 C 330.759 265.514 330.655 270.182 330.613 274.841 C 330.583 278.177 331.778 280.337 335.45 280.365 C 340.777 280.406 339.604 284.323 339.777 287.508 C 339.995 291.509 337.336 291.511 334.497 291.575 C 321.392 291.868 316.282 286.916 316.232 273.757 C 316.215 269.263 316.132 264.767 316.237 260.276 C 316.306 257.303 315.549 255.39 312.076 255.684 C 309.26 255.922 306.991 255.281 307.238 251.744 C 307.439 248.863 305.892 245.08 311.097 244.802 C 315.545 244.565 317.364 241.589 317.848 237.119 Z" style="fill: rgb(255, 255, 255);"/>
  <path opacity="1.000000" stroke="none" d="M 64.858 252.871 C 66.056 252.814 66.887 252.808 67.704 252.912 C 70.791 253.306 72.411 255.128 72.712 258.179 C 72.928 260.369 71.839 261.648 69.802 262.179 C 66.953 262.921 64.793 261.647 63.5 259.328 C 62.292 257.162 61.201 254.62 64.858 252.871 Z" style="fill: rgb(255, 255, 255);"/>
  <path opacity="1.000000" stroke="none" d="M 88.018 256.004 C 90.897 255.844 93.842 255.481 94.462 258.719 C 94.963 261.336 93.648 263.666 90.917 264.608 C 88.563 265.42 85.917 265.378 84.717 262.983 C 83.198 259.951 84.664 257.547 88.018 256.004 Z" style="fill: rgb(255, 255, 255);"/>
</svg>