<svg xmlns="http://www.w3.org/2000/svg" xmlns:xlink="http://www.w3.org/1999/xlink" version="1.1" id="Layer_1" x="0px" y="0px" enable-background="new 0 0 656 432" xml:space="preserve" viewBox="116.3 164.61 429.88 104.59">
<path fill="#000000" opacity="1.000000" stroke="none" d=" M185.380066,260.381775   C182.765472,262.978485 180.397141,265.320953 178.034653,267.669250   C176.006485,269.685272 173.962723,269.720917 171.941879,267.687317   C155.859528,251.503555 139.309753,235.749908 123.862427,218.980835   C112.484161,206.628983 114.379631,186.490570 126.593697,174.048065   C137.898102,162.532242 158.201553,161.319809 170.909683,171.705658   C173.879669,174.132919 175.619141,174.496643 178.782974,171.858261   C191.472198,161.276459 211.746414,162.507004 223.522827,174.200470   C235.362793,185.957047 236.686356,205.272247 226.636932,218.492050   C223.693695,222.363831 220.145172,225.635223 216.736389,229.049911   C206.380768,239.423492 195.999908,249.771881 185.380066,260.381775  M166.679031,187.730164   C165.381363,184.253113 163.609940,181.104065 160.726471,178.647888   C157.202576,175.646179 155.104370,176.131378 153.135574,180.397369   C152.406631,181.976822 152.335938,183.603683 152.336121,185.271622   C152.336655,190.054382 152.336304,194.837128 152.336304,199.979019   C148.720993,199.413605 148.131973,201.948730 146.943283,204.715973   C143.034912,213.814835 145.436081,223.537476 143.626297,232.805923   C143.387741,234.027557 144.560791,234.870667 145.376480,235.691452   C154.296936,244.667526 163.266220,253.595657 172.121368,262.635620   C174.266464,264.825470 175.826462,264.682465 177.904739,262.547424   C183.942856,256.344482 190.096970,250.252609 196.285950,244.199310   C198.539047,241.995590 199.831528,239.626633 198.010925,236.698837   C196.067932,233.574158 193.544479,235.625137 191.059708,235.823547   C192.014145,238.275864 195.353409,237.963379 195.369492,240.817368   C192.968002,242.582336 191.126785,239.343170 188.883484,240.083267   C188.186035,242.294205 192.007553,243.382248 189.821960,246.573151   C185.671158,241.238907 180.519302,242.000778 175.208115,243.994781   C174.929611,244.099350 174.494446,244.048477 174.232574,243.896744   C169.237518,241.002975 164.122879,240.019989 158.719940,242.791870   C158.675461,242.814667 158.365997,242.320984 158.191986,242.084396   C157.962540,239.417374 162.179489,239.753738 161.882812,236.725952   C158.893234,236.541321 155.948853,238.591782 153.102570,236.372879   C154.657532,233.397018 158.112061,234.618500 160.072540,232.836090   C158.943985,230.191742 154.427032,232.213669 154.289902,228.493362   C162.872009,225.422440 167.375595,231.419601 172.221115,237.142288   C172.635300,233.633408 172.685120,230.888321 176.761703,231.601257   C180.326279,232.224640 180.108582,234.454605 178.623566,237.883102   C184.312424,234.845688 188.015442,229.564148 194.435532,231.473694   C194.808243,231.584549 195.546799,230.813538 195.976578,230.329865   C199.874039,225.943756 202.724274,221.169434 201.105667,214.960861   C198.917038,206.565857 200.609039,198.959259 205.426987,191.855362   C206.378204,190.452805 207.993042,189.076385 206.974228,186.376495   C197.941956,186.274780 193.459351,193.752228 187.819656,199.356949   C184.844894,195.210510 189.190155,193.674515 189.166199,190.592361   C183.981567,186.396088 177.864914,185.743622 170.781723,186.657089   C171.560669,189.228149 172.242966,191.413086 172.879501,193.611282   C173.170059,194.614670 173.252533,195.667709 172.031113,196.111847   C170.870758,196.533798 170.142807,195.861557 169.704514,194.842468   C168.784882,192.704163 167.885391,190.557190 166.679031,187.730164  z"/>
<path fill="#000000" opacity="1.000000" stroke="none" d=" M256.059448,249.598740   C255.811920,229.529343 255.741455,209.896759 255.679779,190.264145   C255.673294,188.200851 255.706406,185.912094 258.533142,185.944626   C268.156616,186.055328 277.865875,184.658203 287.385315,186.668655   C298.968475,189.114960 304.623199,198.109238 303.283844,211.097198   C302.300476,220.633682 293.671234,227.946243 283.075714,228.221420   C282.909393,228.225739 282.742859,228.222031 282.576477,228.224701   C270.198120,228.423370 270.198120,228.423401 270.179138,241.042557   C270.163361,251.547485 267.464142,253.524689 256.986053,250.678787   C256.699921,250.601089 256.486389,250.255981 256.059448,249.598740  M271.335052,198.727081   C269.442627,200.672958 270.238983,203.121796 270.222321,205.350815   C270.137970,216.609039 270.181244,216.609360 281.388550,215.700851   C286.703583,215.269974 289.609558,212.240524 289.657776,207.080353   C289.706268,201.886536 286.875214,198.694717 281.564362,198.349625   C278.435455,198.146301 275.278687,198.371918 271.335052,198.727081  z"/>
<path fill="#000000" opacity="1.000000" stroke="none" d=" M508.874573,251.203125   C507.735748,251.210693 507.069183,251.217606 506.402710,251.213303   C499.721527,251.170090 499.686523,251.169617 499.679871,244.567886   C499.660736,225.572159 499.876129,206.572937 499.551331,187.582748   C499.450684,181.696793 502.535645,181.744781 506.728821,181.731003   C510.863770,181.717438 513.727112,181.932648 513.477478,187.484543   C513.051331,196.963089 513.330505,206.475052 513.396484,215.972412   C513.408508,217.699753 512.796875,219.669891 514.830505,221.284882   C518.762207,218.695221 521.633972,214.859604 523.915710,211.026505   C528.902039,202.649780 536.233215,204.680161 544.980774,204.967606   C540.499634,210.233688 536.902222,214.476639 533.287964,218.705200   C527.089233,225.957611 527.091370,225.948624 533.108765,233.492844   C537.409119,238.884460 541.688904,244.292511 546.179382,249.946991   C536.251099,253.205307 530.657654,251.528259 525.079773,244.381577   C521.946472,240.367004 519.271667,235.949936 514.955139,231.884460   C512.235352,237.021622 513.667542,241.873291 513.419739,246.468353   C513.265198,249.333420 512.877869,251.478226 508.874573,251.203125  z"/>
<path fill="#000000" opacity="1.000000" stroke="none" d=" M490.250183,220.226486   C491.995758,232.050430 491.275391,230.213120 481.658447,230.333374   C475.492859,230.410477 469.325256,230.329086 463.159637,230.404190   C461.399689,230.425613 459.461914,229.868256 457.784576,231.603546   C457.925354,235.603241 460.078156,238.245041 463.782440,239.722443   C467.772156,241.313721 471.595856,241.147736 475.065704,238.322754   C479.659271,234.582794 484.011566,234.319260 489.663055,237.432526   C487.221771,246.654922 476.978119,253.247452 466.907745,252.077240   C451.986725,250.343369 444.292389,242.559372 443.569824,229.657455   C442.744171,214.914658 451.085663,205.695526 463.076904,203.811813   C476.754211,201.663254 486.153381,207.196167 490.250183,220.226486  M465.655670,220.972794   C469.149414,220.663559 472.800720,221.715424 476.320618,219.976761   C475.159576,214.899063 471.443848,213.504578 467.354706,213.761963   C463.519348,214.003357 459.510864,215.021545 458.710480,220.261642   C460.820312,221.237244 462.816956,220.878723 465.655670,220.972794  z"/>
<path fill="#000000" opacity="1.000000" stroke="none" d=" M353.419708,219.951141   C357.848511,203.881699 377.120667,200.463013 390.067200,205.929001   C402.251434,211.073166 407.079132,227.035660 400.556061,239.577591   C395.317047,249.650650 382.994446,254.230789 369.840057,250.994339   C359.097198,248.351181 352.658997,239.868973 352.671265,228.273621   C352.674072,225.625168 352.340454,222.933640 353.419708,219.951141  M366.438965,224.236725   C365.900421,230.288483 366.297607,236.054504 372.441193,239.358353   C378.188904,242.449295 385.322632,240.013351 388.142731,234.228745   C391.577881,227.182419 389.071747,218.679886 382.697845,215.755905   C375.948730,212.659790 369.956451,215.527283 366.438965,224.236725  z"/>
<path fill="#000000" opacity="1.000000" stroke="none" d=" M334.848694,216.913834   C332.475586,213.418411 329.313995,212.903305 325.817047,213.422165   C324.235718,213.656799 322.917389,214.456635 322.628418,216.137802   C322.316101,217.954681 323.637665,218.961136 325.060913,219.468262   C328.969666,220.861038 333.005066,221.909027 336.880707,223.382034   C346.284515,226.956024 350.006927,234.197571 346.911804,242.534363   C344.694580,248.506348 337.044861,252.578339 328.112335,252.109253   C321.518372,251.762955 315.095551,250.415054 310.936859,244.564117   C309.658752,242.765915 307.016632,239.764725 310.196289,238.294647   C313.175720,236.917130 317.100983,233.459503 320.499542,237.445526   C323.120026,240.518921 325.861481,242.250259 329.927368,241.723022   C332.051147,241.447617 334.055450,240.846252 334.395172,238.514938   C334.691711,236.479599 333.258087,235.046646 331.421112,234.380890   C327.833862,233.080826 324.163116,232.012772 320.563934,230.743652   C315.351013,228.905487 310.708008,226.325363 309.775055,220.193985   C308.605865,212.509735 312.172729,206.550079 319.758759,204.656830   C327.675415,202.681076 335.649750,202.472214 342.341156,208.465134   C344.364655,210.277405 345.604858,212.636459 345.973267,215.978745   C342.426971,216.989319 339.200043,219.860367 334.848694,216.913834  z"/>
<path fill="#000000" opacity="1.000000" stroke="none" d=" M416.384766,196.768036   C416.644440,190.396896 422.102509,187.259567 427.425507,190.050476   C428.855194,190.800079 429.025391,192.082489 429.075409,193.420135   C429.149994,195.415009 429.273499,197.424026 429.123383,199.407898   C428.844147,203.097992 429.964447,205.219620 434.124237,204.680710   C437.985046,204.180496 438.429993,206.599487 438.338654,209.635223   C438.250458,212.566376 438.545654,215.678543 434.178864,215.261017   C430.165771,214.877319 428.888702,216.714615 429.071838,220.513107   C429.296021,225.162903 429.192078,229.830933 429.150208,234.490356   C429.120239,237.825577 430.314636,239.985428 433.987183,240.013580   C439.313843,240.054428 438.140747,243.972321 438.314148,247.156906   C438.532043,251.157639 435.872955,251.159882 433.033875,251.223511   C419.928589,251.517227 414.819183,246.564423 414.768799,233.405548   C414.751587,228.911911 414.668884,224.416275 414.773499,219.925232   C414.842743,216.952057 414.085938,215.038483 410.613373,215.332581   C407.797028,215.571091 405.527649,214.929474 405.774780,211.392960   C405.976105,208.512222 404.429016,204.729080 409.633820,204.451126   C414.081543,204.213608 415.901276,201.238266 416.384766,196.768036  z"/>
<path fill="#000000" opacity="1.000000" stroke="none" d=" M163.395355,212.519653   C164.592697,212.462769 165.423935,212.456543 166.241058,212.560745   C169.327988,212.954391 170.947861,214.776566 171.248825,217.828354   C171.464722,220.017471 170.376190,221.296661 168.339050,221.827576   C165.490234,222.570023 163.330368,221.296387 162.036865,218.976929   C160.829117,216.811264 159.737854,214.269165 163.395355,212.519653  z"/>
<path fill="#000000" opacity="1.000000" stroke="none" d=" M186.554474,215.653152   C189.434219,215.492981 192.378632,215.130127 192.998581,218.368210   C193.499542,220.984970 192.185211,223.314743 189.453979,224.256775   C187.099716,225.068802 184.454346,225.026413 183.254333,222.631821   C181.735062,219.600174 183.200546,217.195831 186.554474,215.653152  z"/>
</svg>